<?xml version="1.0" standalone="no"?>
<!DOCTYPE svg PUBLIC "-//W3C//DTD SVG 20010904//EN"
 "http://www.w3.org/TR/2001/REC-SVG-20010904/DTD/svg10.dtd">
<svg version="1.0" xmlns="http://www.w3.org/2000/svg"
 width="750.000000pt" height="750.000000pt" viewBox="0 0 750.000000 750.000000"
 preserveAspectRatio="xMidYMid meet">
<metadata>
Created by potrace 1.14, written by Peter Selinger 2001-2017
</metadata>
<g transform="translate(0.000000,750.000000) scale(0.100000,-0.100000)"
fill="#000000" stroke="none">
<path d="M3518 7496 c-1 -2 -41 -6 -88 -10 -47 -4 -96 -8 -110 -11 -14 -2 -46
-7 -73 -9 -41 -4 -97 -13 -189 -30 -53 -10 -177 -38 -252 -57 -103 -26 -287
-84 -353 -110 -15 -6 -37 -15 -48 -19 -181 -70 -406 -178 -565 -273 -150 -89
-370 -243 -474 -332 -199 -170 -383 -353 -496 -495 -19 -24 -42 -50 -50 -59
-8 -9 -26 -32 -40 -51 -13 -19 -32 -44 -42 -54 -10 -11 -18 -23 -18 -26 0 -4
-8 -17 -19 -28 -16 -19 -85 -123 -167 -252 -113 -179 -269 -520 -348 -765 -35
-110 -101 -355 -111 -417 -3 -18 -10 -55 -15 -83 -42 -218 -55 -383 -55 -680
1 -268 7 -351 45 -590 83 -513 278 -1016 564 -1450 56 -85 192 -274 205 -285
4 -3 26 -30 51 -60 99 -121 303 -331 415 -425 32 -27 66 -57 76 -65 23 -22 47
-41 114 -90 33 -25 62 -48 65 -51 12 -13 223 -150 325 -210 233 -137 512 -259
775 -341 104 -32 305 -83 360 -92 19 -3 46 -8 60 -11 14 -3 39 -7 55 -10 17
-3 41 -7 55 -10 14 -3 45 -7 70 -10 25 -3 65 -8 90 -11 133 -17 259 -21 480
-18 135 2 261 5 280 8 19 2 60 7 90 11 30 4 66 9 80 10 53 6 125 17 131 21 3
1 28 6 55 10 27 3 52 8 55 10 3 2 21 6 40 9 19 3 70 15 114 27 44 11 87 22 95
23 8 2 15 4 15 5 0 1 8 3 17 5 44 8 255 82 373 130 361 147 663 325 958 565
126 102 154 127 287 260 143 143 174 178 279 310 366 461 608 969 735 1545 13
61 27 131 31 155 3 25 8 52 10 60 2 8 7 40 11 70 3 30 8 66 9 80 14 110 20
238 20 435 0 257 -6 339 -41 580 -59 416 -256 965 -472 1315 -12 19 -25 42
-29 50 -12 27 -125 193 -197 290 -104 141 -199 251 -337 390 -154 156 -203
200 -356 320 -43 34 -85 67 -93 73 -51 40 -243 165 -345 224 -443 256 -955
425 -1445 478 -30 3 -71 8 -90 11 -38 5 -566 15 -572 10z"/>
</g>
</svg>
